<?xml version="1.0" standalone="no"?>
<!DOCTYPE svg PUBLIC "-//W3C//DTD SVG 20010904//EN"
 "http://www.w3.org/TR/2001/REC-SVG-20010904/DTD/svg10.dtd">
<svg version="1.0" xmlns="http://www.w3.org/2000/svg"
 width="700.000000pt" height="700.000000pt" viewBox="0 0 700.000000 700.000000"
 preserveAspectRatio="xMidYMid meet">
<metadata>
Created by potrace 1.11, written by Peter Selinger 2001-2013
</metadata>
<g transform="translate(0.000000,700.000000) scale(0.100000,-0.100000)"
fill="#000000" stroke="none">
<path d="M1147 6422 l-327 -195 2 -2729 3 -2729 320 -188 320 -188 3 2344 c1
1289 4 2343 7 2343 3 0 148 -83 323 -183 2151 -1243 2405 -1388 2420 -1382 11
4 13 3 7 -3 -5 -5 -464 -272 -1020 -592 -555 -320 -1027 -593 -1047 -606 l-38
-24 0 -375 c0 -248 3 -375 10 -375 10 0 4058 2325 4072 2338 5 5 -4187 2434
-4681 2713 l-46 26 -328 -195z m3673 -2567 c0 -2 -10 -9 -22 -15 -22 -11 -22
-10 -4 4 21 17 26 19 26 11z m-70 -40 c0 -2 -10 -9 -22 -15 -22 -11 -22 -10
-4 4 21 17 26 19 26 11z m-120 -70 c0 -2 -10 -9 -22 -15 -22 -11 -22 -10 -4 4
21 17 26 19 26 11z m-70 -40 c0 -2 -10 -9 -22 -15 -22 -11 -22 -10 -4 4 21 17
26 19 26 11z m-70 -40 c0 -2 -10 -9 -22 -15 -22 -11 -22 -10 -4 4 21 17 26 19
26 11z m-120 -70 c0 -2 -10 -9 -22 -15 -22 -11 -22 -10 -4 4 21 17 26 19 26
11z m-70 -40 c0 -2 -10 -9 -22 -15 -22 -11 -22 -10 -4 4 21 17 26 19 26 11z"/>
</g>
</svg>
